<svg xmlns="http://www.w3.org/2000/svg" viewBox="0 0 1200 675" role="img" aria-labelledby="title desc"><title id="title">Vasco da Gama útja</title><desc id="desc">Sematikus térkép Portugáliától Afrika megkerülésével az Indiai-óceánon át Indiáig.</desc><rect width="1200" height="675" rx="28" fill="#dcecf0"/><path d="M535 90l170 15 80 78-58 82 55 63-72 95-25 130-82 72-56-65-76-140 28-120-54-90 42-82z" fill="#e4ce9e" stroke="#6d5635" stroke-width="6"/><path d="M1008 262l82 25-38 75-78-18z" fill="#e4ce9e" stroke="#6d5635" stroke-width="6"/><path d="M420 135C300 250 330 450 560 570c145 75 330-28 470-225" fill="none" stroke="#1b7770" stroke-width="12" stroke-dasharray="18 12"/><path d="M1034 343l-38 5 26 27z" fill="#1b7770"/><g font-family="Arial,sans-serif" fill="#173f55"><text x="70" y="80" font-size="40" font-weight="700">Vasco da Gama útja, 1497–1498</text><text x="360" y="125" font-size="25">Portugália</text><text x="1000" y="245" font-size="25">India</text><text x="790" y="560" font-size="25">Indiai-óceán</text></g></svg>
