<svg xmlns="http://www.w3.org/2000/svg" viewBox="0 0 1200 675" role="img" aria-labelledby="title desc"><title id="title">Magellán expedíciójának útvonala</title><desc id="desc">Sematikus világtérkép a Spanyolországból induló, Dél-Amerikán és a Csendes-óceánon át vezető, Elcano által befejezett első Föld körüli úttal.</desc><rect width="1200" height="675" rx="28" fill="#dcecf0"/><g fill="#e4ce9e" stroke="#6d5635" stroke-width="5"><path d="M100 145l240-40 110 100-80 95 45 145-150 110-155-65z"/><path d="M470 120l230 5 80 95-80 105 50 170-140 80-100-160 30-120z"/><path d="M830 155l245-25 60 120-105 85 85 110-190 80-100-120 35-95z"/></g><path d="M650 150C530 185 370 230 330 420c-28 130 140 165 300 130 250-55 390-145 455-250 32-52-80-115-250-125" fill="none" stroke="#b34f36" stroke-width="12" stroke-dasharray="18 12"/><path d="M836 176l38-15-12 37z" fill="#b34f36"/><g font-family="Arial,sans-serif" fill="#173f55"><text x="55" y="70" font-size="38" font-weight="700">Az első Föld körüli expedíció</text><text x="620" y="125" font-size="24">Spanyolország</text><text x="220" y="470" font-size="24">Magellán-szoros</text><text x="850" y="555" font-size="24">Elcano fejezte be az utat</text></g></svg>
