<svg xmlns="http://www.w3.org/2000/svg" viewBox="0 0 1200 675" role="img" aria-labelledby="title desc"><title id="title">A fő tengeri útvonalak áttekintése</title><desc id="desc">Sematikus világtérkép Dias, Vasco da Gama, Kolumbusz és a Magellán-expedíció útvonalainak összehasonlításával.</desc><rect width="1200" height="675" rx="28" fill="#dcecf0"/><g fill="#e4ce9e" stroke="#6d5635" stroke-width="4"><path d="M70 140l260-50 100 105-70 90 55 155-160 120-170-80z"/><path d="M520 105l215 15 78 90-70 95 55 170-125 110-100-170 25-120z"/><path d="M920 150l210-25 40 110-105 85 80 120-185 110-95-125 35-105z"/></g><path d="M560 155C460 245 485 435 680 535" fill="none" stroke="#8a4f2a" stroke-width="10"/><path d="M590 150C455 210 380 250 330 330" fill="none" stroke="#b34f36" stroke-width="10"/><path d="M590 155C500 275 510 470 690 540 160 600 110 250 590 155" fill="none" stroke="#1b7770" stroke-width="10" stroke-dasharray="16 10"/><g font-family="Arial,sans-serif" fill="#173f55"><text x="50" y="65" font-size="38" font-weight="700">A fő útvonalak</text><circle cx="75" cy="610" r="10" fill="#8a4f2a"/><text x="95" y="618" font-size="22">Afrika megkerülése</text><circle cx="405" cy="610" r="10" fill="#b34f36"/><text x="425" y="618" font-size="22">Kolumbusz nyugati útja</text><circle cx="785" cy="610" r="10" fill="#1b7770"/><text x="805" y="618" font-size="22">Föld körüli expedíció</text></g></svg>
